<?xml version="1.0" encoding="UTF-8" standalone="no"?>
<!-- Created with Inkscape (http://www.inkscape.org/) -->

<svg
   xmlns:dc="http://purl.org/dc/elements/1.1/"
   xmlns:cc="http://creativecommons.org/ns#"
   xmlns:rdf="http://www.w3.org/1999/02/22-rdf-syntax-ns#"
   xmlns:svg="http://www.w3.org/2000/svg"
   xmlns="http://www.w3.org/2000/svg"
   xmlns:sodipodi="http://sodipodi.sourceforge.net/DTD/sodipodi-0.dtd"
   xmlns:inkscape="http://www.inkscape.org/namespaces/inkscape"
   width="250"
   height="250"
   viewBox="0 0 250 250"
   id="svg2"
   version="1.1"
   inkscape:version="0.91 r"
   sodipodi:docname="logo_transparent.svg"
   inkscape:export-filename="/home/rasi/git/labwebsite/images/logo_transparent.png"
   inkscape:export-xdpi="90"
   inkscape:export-ydpi="90">
  <defs
     id="defs4">
    <inkscape:path-effect
       effect="spiro"
       id="path-effect3435"
       is_visible="true" />
  </defs>
  <sodipodi:namedview
     id="base"
     pagecolor="#ffffff"
     bordercolor="#666666"
     borderopacity="1.0"
     inkscape:pageopacity="0"
     inkscape:pageshadow="2"
     inkscape:zoom="1.979899"
     inkscape:cx="77.142842"
     inkscape:cy="113.05692"
     inkscape:document-units="px"
     inkscape:current-layer="layer1"
     showgrid="false"
     inkscape:snap-nodes="true"
     inkscape:object-paths="true"
     inkscape:snap-intersection-paths="true"
     inkscape:object-nodes="true"
     inkscape:snap-midpoints="true"
     inkscape:snap-object-midpoints="true"
     inkscape:snap-center="true"
     inkscape:snap-text-baseline="true"
     inkscape:snap-global="false"
     fit-margin-top="0"
     fit-margin-left="0"
     fit-margin-right="0"
     fit-margin-bottom="0"
     units="px"
     inkscape:window-width="1360"
     inkscape:window-height="744"
     inkscape:window-x="0"
     inkscape:window-y="24"
     inkscape:window-maximized="1" />
  <metadata
     id="metadata7">
    <rdf:RDF>
      <cc:Work
         rdf:about="">
        <dc:format>image/svg+xml</dc:format>
        <dc:type
           rdf:resource="http://purl.org/dc/dcmitype/StillImage" />
        <dc:title />
      </cc:Work>
    </rdf:RDF>
  </metadata>
  <g
     inkscape:label="Layer 1"
     inkscape:groupmode="layer"
     id="layer1"
     transform="translate(-303.52805,-175.88629)">
    <path
       style="color:#000000;clip-rule:nonzero;display:inline;overflow:visible;visibility:visible;opacity:1;isolation:auto;mix-blend-mode:normal;color-interpolation:sRGB;color-interpolation-filters:linearRGB;solid-color:#000000;solid-opacity:1;fill:#00a854;fill-opacity:1;fill-rule:nonzero;stroke:none;stroke-width:9.61538506;stroke-linecap:butt;stroke-linejoin:miter;stroke-miterlimit:4;stroke-dasharray:none;stroke-dashoffset:0;stroke-opacity:1;color-rendering:auto;image-rendering:auto;shape-rendering:auto;text-rendering:auto;enable-background:accumulate"
       d="M 125 9.5664062 A 115.43269 115.43269 0 0 0 98.556641 12.763672 A 8.0510214 4.9544748 45 0 1 104.2168 15.876953 A 8.0510214 4.9544748 45 0 1 106.40625 25.074219 A 8.0510214 4.9544748 45 0 1 97.208984 22.884766 A 8.0510214 4.9544748 45 0 1 96.330078 21.902344 A 4.9544748 8.0510214 45 0 1 95.318359 23.048828 A 4.9544748 8.0510214 45 0 1 86.121094 25.238281 A 4.9544748 8.0510214 45 0 1 88.310547 16.041016 A 4.9544748 8.0510214 45 0 1 88.986328 15.416016 A 115.43269 115.43269 0 0 0 39.267578 48.044922 C 50.808288 46.048616 69.106665 41.479563 90.59375 37.236328 C 114.81919 32.452318 143.5141 28.143485 173.21875 28.703125 C 177.32118 28.780417 181.44245 28.955927 185.57422 29.230469 C 186.01528 28.727227 186.44686 28.220076 186.91406 27.726562 A 115.43269 115.43269 0 0 0 153.22852 13.222656 A 8.0510214 4.9544748 45 0 1 153.75391 20.363281 A 8.0510214 4.9544748 45 0 1 144.55859 18.173828 A 8.0510214 4.9544748 45 0 1 143.67969 17.191406 A 4.9544748 8.0510214 45 0 1 142.66602 18.335938 A 4.9544748 8.0510214 45 0 1 133.4707 20.527344 A 4.9544748 8.0510214 45 0 1 135.66016 11.330078 A 4.9544748 8.0510214 45 0 1 136.78906 10.328125 A 115.43269 115.43269 0 0 0 125 9.5664062 z M 166.9082 38.275391 C 140.3979 38.384393 114.63307 42.290628 92.457031 46.669922 C 66.563711 51.783302 46.358886 57.443446 33.628906 58.410156 C 33.509836 58.457536 33.332101 58.527324 33.332031 58.527344 C 33.331751 58.527444 33.0266 58.599434 32.9375 58.615234 C 32.58103 58.678834 32.540303 58.669781 32.470703 58.675781 C 31.913963 58.719781 32.071569 58.694266 31.917969 58.697266 C 31.764369 58.700266 31.587167 58.703078 31.404297 58.705078 C 31.196734 58.707348 31.010734 58.704657 30.837891 58.705078 A 115.43269 115.43269 0 0 0 20.138672 77.083984 C 43.752316 90.857759 75.429158 96.038 103.53711 111.79492 C 104.94731 109.9251 106.51551 108.09198 108.26953 106.33789 C 120.82775 93.779294 137.23118 89.820021 144.90625 97.494141 C 145.88814 98.496851 146.69143 99.670814 147.30469 100.99414 C 147.65544 98.504544 148.39506 95.896563 149.49609 93.257812 C 146.51135 93.310693 144.00452 92.418727 142.26758 90.685547 C 137.20161 85.620787 139.81304 74.796847 148.10156 66.507812 C 156.39065 58.218322 167.21812 55.603642 172.2832 60.669922 C 174.00876 62.408962 174.89544 64.915274 174.83984 67.896484 C 177.47299 66.800834 180.07275 66.06699 182.55664 65.71875 C 181.24482 65.10086 180.08296 64.293157 179.08984 63.310547 C 173.68596 57.905993 174.07796 48.175435 179.15234 38.505859 C 175.06003 38.331811 170.97569 38.258666 166.9082 38.275391 z M 132.63086 47.822266 A 8.0510214 4.9544748 45 0 1 132.97852 47.828125 A 8.0510214 4.9544748 45 0 1 139.20312 51.001953 A 8.0510214 4.9544748 45 0 1 141.39258 60.197266 A 8.0510214 4.9544748 45 0 1 132.19531 58.007812 A 8.0510214 4.9544748 45 0 1 131.31641 57.027344 A 4.9544748 8.0510214 45 0 1 130.30469 58.171875 A 4.9544748 8.0510214 45 0 1 121.10742 60.361328 A 4.9544748 8.0510214 45 0 1 123.29688 51.166016 A 4.9544748 8.0510214 45 0 1 131.01758 48.146484 A 8.0510214 4.9544748 45 0 1 132.63086 47.822266 z M 94.166016 54.773438 A 8.0510214 4.9544748 45 0 1 94.517578 54.779297 A 8.0510214 4.9544748 45 0 1 100.74023 57.953125 A 8.0510214 4.9544748 45 0 1 102.93164 67.148438 A 8.0510214 4.9544748 45 0 1 93.734375 64.958984 A 8.0510214 4.9544748 45 0 1 92.855469 63.976562 A 4.9544748 8.0510214 45 0 1 91.841797 65.123047 A 4.9544748 8.0510214 45 0 1 82.646484 67.3125 A 4.9544748 8.0510214 45 0 1 84.835938 58.117188 A 4.9544748 8.0510214 45 0 1 92.552734 55.097656 A 8.0510214 4.9544748 45 0 1 94.166016 54.773438 z M 31.201172 58.175781 A 115.43269 115.43269 0 0 0 30.951172 58.541016 C 30.960801 58.544262 31.019554 58.564458 31.019531 58.564453 C 31.019371 58.564453 31.120072 58.583709 31.201172 58.599609 L 31.201172 58.175781 z M 200.6875 64.777344 C 198.05378 65.872744 195.45295 66.605515 192.96875 66.953125 C 194.28115 67.571285 195.44407 68.378128 196.4375 69.361328 C 204.11162 77.036388 200.15043 93.439748 187.5918 105.99805 C 186.76884 106.82097 185.92859 107.60531 185.07617 108.35352 C 200.28134 124.30632 207.02972 136.21866 211.4668 147.73047 C 215.76603 158.8846 217.97411 169.24655 224.28711 183.3457 A 115.43269 115.43269 0 0 0 234.625 160.70117 A 8.0510214 4.9544748 45 0 1 229.03711 157.5957 A 8.0510214 4.9544748 45 0 1 228.1582 156.61328 A 4.9544748 8.0510214 45 0 1 227.14453 157.75977 A 4.9544748 8.0510214 45 0 1 217.94922 159.94922 A 4.9544748 8.0510214 45 0 1 220.13867 150.75391 A 4.9544748 8.0510214 45 0 1 227.85742 147.73438 A 8.0510214 4.9544748 45 0 1 236.04297 150.58984 A 8.0510214 4.9544748 45 0 1 237.13477 151.83398 A 115.43269 115.43269 0 0 0 240.43359 125 A 115.43269 115.43269 0 0 0 225.28125 68.117188 C 217.35162 74.823836 207.88374 76.642642 203.24414 72.001953 C 201.51858 70.262923 200.6319 67.758554 200.6875 64.777344 z M 56.435547 66.324219 A 8.0510214 4.9544748 45 0 1 56.783203 66.330078 A 8.0510214 4.9544748 45 0 1 63.007812 69.503906 A 8.0510214 4.9544748 45 0 1 65.197266 78.701172 A 8.0510214 4.9544748 45 0 1 56.001953 76.511719 A 8.0510214 4.9544748 45 0 1 55.121094 75.529297 A 4.9544748 8.0510214 45 0 1 54.109375 76.673828 A 4.9544748 8.0510214 45 0 1 44.912109 78.863281 A 4.9544748 8.0510214 45 0 1 47.103516 69.667969 A 4.9544748 8.0510214 45 0 1 54.822266 66.648438 A 8.0510214 4.9544748 45 0 1 56.435547 66.324219 z M 103.32812 77.765625 A 8.0510214 4.9544748 45 0 1 103.67773 77.771484 A 8.0510214 4.9544748 45 0 1 109.90234 80.945312 A 8.0510214 4.9544748 45 0 1 112.0918 90.142578 A 8.0510214 4.9544748 45 0 1 102.89453 87.953125 A 8.0510214 4.9544748 45 0 1 102.01562 86.970703 A 4.9544748 8.0510214 45 0 1 101.00391 88.115234 A 4.9544748 8.0510214 45 0 1 91.806641 90.304688 A 4.9544748 8.0510214 45 0 1 93.996094 81.109375 A 4.9544748 8.0510214 45 0 1 101.71484 78.089844 A 8.0510214 4.9544748 45 0 1 103.32812 77.765625 z M 221.67383 84.076172 A 8.0510214 4.9544748 45 0 1 227.89844 87.25 A 8.0510214 4.9544748 45 0 1 230.08789 96.447266 A 8.0510214 4.9544748 45 0 1 220.89062 94.257812 A 8.0510214 4.9544748 45 0 1 220.01172 93.275391 A 4.9544748 8.0510214 45 0 1 219 94.421875 A 4.9544748 8.0510214 45 0 1 209.80273 96.611328 A 4.9544748 8.0510214 45 0 1 211.99219 87.414062 A 4.9544748 8.0510214 45 0 1 219.71289 84.396484 A 8.0510214 4.9544748 45 0 1 221.07812 84.078125 A 8.0510214 4.9544748 45 0 1 221.67383 84.076172 z M 16.410156 86.066406 A 115.43269 115.43269 0 0 0 9.5664062 125 A 115.43269 115.43269 0 0 0 27.972656 187.51758 C 28.080497 186.87992 28.268532 186.34217 28.607422 186.00195 C 41.165642 173.44333 57.567117 169.48408 65.242188 177.1582 C 66.224078 178.16091 67.029318 179.33485 67.642578 180.6582 C 67.993338 178.16858 68.730991 175.56062 69.832031 172.92188 C 66.847301 172.97475 64.340466 172.08279 62.603516 170.34961 C 57.537546 165.28485 60.14896 154.45894 68.4375 146.16992 C 76.72659 137.88043 87.554061 135.2677 92.619141 140.33398 C 94.345011 142.07255 95.230781 144.57776 95.175781 147.55859 C 97.809491 146.46318 100.41228 145.72847 102.89648 145.38086 C 101.58407 144.76271 100.42116 143.95587 99.427734 142.97266 C 94.369943 137.91425 94.366896 129.06488 98.546875 120.02344 C 72.862502 105.75316 41.878124 100.71445 16.410156 86.066406 z M 37.849609 104.14062 A 8.0510214 4.9544748 45 0 1 38.199219 104.14648 A 8.0510214 4.9544748 45 0 1 44.421875 107.32031 A 8.0510214 4.9544748 45 0 1 46.611328 116.51758 A 8.0510214 4.9544748 45 0 1 37.416016 114.32617 A 8.0510214 4.9544748 45 0 1 36.537109 113.3457 A 4.9544748 8.0510214 45 0 1 35.523438 114.49023 A 4.9544748 8.0510214 45 0 1 26.328125 116.67969 A 4.9544748 8.0510214 45 0 1 28.517578 107.48438 A 4.9544748 8.0510214 45 0 1 36.236328 104.46484 A 8.0510214 4.9544748 45 0 1 37.849609 104.14062 z M 148.55859 111.34375 C 148.2072 113.83307 147.46847 116.43993 146.36719 119.07812 C 149.3523 119.02474 151.86024 119.91559 153.59766 121.64844 C 158.66393 126.71352 156.05121 137.541 147.76172 145.83008 C 139.47271 154.11859 128.64679 156.73001 123.58203 151.66406 C 121.85615 149.92549 120.96844 147.42028 121.02344 144.43945 C 118.38972 145.53486 115.78889 146.26957 113.30469 146.61719 C 114.61709 147.23535 115.78003 148.04219 116.77344 149.02539 C 124.44756 156.70046 120.48832 173.10389 107.92969 185.66211 C 106.2505 187.34123 104.49947 188.85439 102.71289 190.21875 C 108.48982 197.32174 114.78889 202.35816 121.18555 206.84375 C 133.34794 215.3725 146.59031 221.92403 155.04102 236.27734 A 115.43269 115.43269 0 0 0 218.26367 192.57031 L 218.03711 192.68164 C 209.34885 174.93582 206.91694 162.66419 202.49414 151.18945 C 198.32126 140.36311 192.41618 129.75371 177.18359 114.00977 C 167.05762 119.81332 156.62833 120.50848 150.95898 114.83984 C 149.97728 113.83788 149.17204 112.66611 148.55859 111.34375 z M 223.97461 113.61914 A 8.0510214 4.9544748 45 0 1 224.32422 113.625 A 8.0510214 4.9544748 45 0 1 230.54883 116.79883 A 8.0510214 4.9544748 45 0 1 232.73828 125.99414 A 8.0510214 4.9544748 45 0 1 223.54297 123.80469 A 8.0510214 4.9544748 45 0 1 222.66211 122.82227 A 4.9544748 8.0510214 45 0 1 221.65039 123.96875 A 4.9544748 8.0510214 45 0 1 212.45312 126.1582 A 4.9544748 8.0510214 45 0 1 214.64453 116.96289 A 4.9544748 8.0510214 45 0 1 222.36133 113.94336 A 8.0510214 4.9544748 45 0 1 223.97461 113.61914 z M 73.564453 113.75586 A 8.0510214 4.9544748 45 0 1 73.912109 113.76172 A 8.0510214 4.9544748 45 0 1 80.136719 116.93555 A 8.0510214 4.9544748 45 0 1 82.326172 126.13281 A 8.0510214 4.9544748 45 0 1 73.130859 123.94336 A 8.0510214 4.9544748 45 0 1 72.25 122.96094 A 4.9544748 8.0510214 45 0 1 71.238281 124.10547 A 4.9544748 8.0510214 45 0 1 62.041016 126.29492 A 4.9544748 8.0510214 45 0 1 64.232422 117.09961 A 4.9544748 8.0510214 45 0 1 71.951172 114.08008 A 8.0510214 4.9544748 45 0 1 73.564453 113.75586 z M 169.03125 124.05859 A 8.0510214 4.9544748 45 0 1 169.38086 124.06445 A 8.0510214 4.9544748 45 0 1 175.60352 127.23828 A 8.0510214 4.9544748 45 0 1 177.79297 136.43359 A 8.0510214 4.9544748 45 0 1 168.59766 134.24414 A 8.0510214 4.9544748 45 0 1 167.71875 133.26172 A 4.9544748 8.0510214 45 0 1 166.70508 134.4082 A 4.9544748 8.0510214 45 0 1 157.50977 136.59766 A 4.9544748 8.0510214 45 0 1 159.69922 127.40234 A 4.9544748 8.0510214 45 0 1 167.41797 124.38281 A 8.0510214 4.9544748 45 0 1 169.03125 124.05859 z M 34.078125 142.60742 A 8.0510214 4.9544748 45 0 1 40.300781 145.78125 A 8.0510214 4.9544748 45 0 1 42.490234 154.97852 A 8.0510214 4.9544748 45 0 1 33.294922 152.78906 A 8.0510214 4.9544748 45 0 1 32.416016 151.80664 A 4.9544748 8.0510214 45 0 1 31.402344 152.95312 A 4.9544748 8.0510214 45 0 1 22.207031 155.14258 A 4.9544748 8.0510214 45 0 1 24.396484 145.94531 A 4.9544748 8.0510214 45 0 1 32.115234 142.92578 A 8.0510214 4.9544748 45 0 1 33.482422 142.60938 A 8.0510214 4.9544748 45 0 1 34.078125 142.60742 z M 175.97266 155.10742 A 8.0510214 4.9544748 45 0 1 182.19727 158.28125 A 8.0510214 4.9544748 45 0 1 184.38672 167.47852 A 8.0510214 4.9544748 45 0 1 175.19141 165.28906 A 8.0510214 4.9544748 45 0 1 174.31055 164.30664 A 4.9544748 8.0510214 45 0 1 173.29883 165.45312 A 4.9544748 8.0510214 45 0 1 164.10156 167.64258 A 4.9544748 8.0510214 45 0 1 166.29102 158.44531 A 4.9544748 8.0510214 45 0 1 174.01172 155.42578 A 8.0510214 4.9544748 45 0 1 175.37695 155.10938 A 8.0510214 4.9544748 45 0 1 175.97266 155.10742 z M 141.74219 158.93945 A 8.0510214 4.9544748 45 0 1 147.9668 162.11523 A 8.0510214 4.9544748 45 0 1 150.15625 171.31055 A 8.0510214 4.9544748 45 0 1 140.95898 169.12109 A 8.0510214 4.9544748 45 0 1 140.08008 168.13867 A 4.9544748 8.0510214 45 0 1 139.06836 169.28516 A 4.9544748 8.0510214 45 0 1 129.87109 171.47461 A 4.9544748 8.0510214 45 0 1 132.06055 162.27734 A 4.9544748 8.0510214 45 0 1 139.78125 159.25977 A 8.0510214 4.9544748 45 0 1 141.14648 158.94141 A 8.0510214 4.9544748 45 0 1 141.74219 158.93945 z M 183.45508 186.55859 A 8.0510214 4.9544748 45 0 1 183.80273 186.56445 A 8.0510214 4.9544748 45 0 1 190.02734 189.73828 A 8.0510214 4.9544748 45 0 1 192.2168 198.93359 A 8.0510214 4.9544748 45 0 1 183.01953 196.74414 A 8.0510214 4.9544748 45 0 1 182.14062 195.76367 A 4.9544748 8.0510214 45 0 1 181.12891 196.9082 A 4.9544748 8.0510214 45 0 1 171.93164 199.09766 A 4.9544748 8.0510214 45 0 1 174.12109 189.90234 A 4.9544748 8.0510214 45 0 1 181.8418 186.88281 A 8.0510214 4.9544748 45 0 1 183.45508 186.55859 z M 132.62891 190.67969 A 8.0510214 4.9544748 45 0 1 132.97852 190.68555 A 8.0510214 4.9544748 45 0 1 139.20312 193.85938 A 8.0510214 4.9544748 45 0 1 141.39258 203.05469 A 8.0510214 4.9544748 45 0 1 132.19531 200.86523 A 8.0510214 4.9544748 45 0 1 131.31641 199.88281 A 4.9544748 8.0510214 45 0 1 130.30469 201.0293 A 4.9544748 8.0510214 45 0 1 121.10742 203.21875 A 4.9544748 8.0510214 45 0 1 123.29688 194.02148 A 4.9544748 8.0510214 45 0 1 131.01562 191.00391 A 8.0510214 4.9544748 45 0 1 132.62891 190.67969 z M 68.894531 191.00781 C 68.543481 193.49667 67.805828 196.10245 66.705078 198.74023 C 69.689818 198.68736 72.196654 199.57932 73.933594 201.3125 C 78.981129 206.35883 76.402499 217.12142 68.185547 225.39844 A 115.43269 115.43269 0 0 0 125 240.43359 A 115.43269 115.43269 0 0 0 145.05273 238.54297 C 138.0116 228.4364 127.55745 223.05496 115.66406 214.71484 C 108.61599 209.77246 101.29322 203.75001 94.582031 195.22266 C 85.42384 199.55992 76.416263 199.62461 71.294922 194.50391 C 70.313222 193.50196 69.507981 192.33017 68.894531 191.00781 z M 94.855469 209.22266 A 8.0510214 4.9544748 45 0 1 95.205078 209.22852 A 8.0510214 4.9544748 45 0 1 101.42773 212.40234 A 8.0510214 4.9544748 45 0 1 103.61719 221.59961 A 8.0510214 4.9544748 45 0 1 94.421875 219.41016 A 8.0510214 4.9544748 45 0 1 93.541016 218.42773 A 4.9544748 8.0510214 45 0 1 92.529297 219.57227 A 4.9544748 8.0510214 45 0 1 83.333984 221.76172 A 4.9544748 8.0510214 45 0 1 85.523438 212.56641 A 4.9544748 8.0510214 45 0 1 93.242188 209.54688 A 8.0510214 4.9544748 45 0 1 94.855469 209.22266 z M 162.51172 210.60156 A 8.0510214 4.9544748 45 0 1 168.73633 213.77734 A 8.0510214 4.9544748 45 0 1 170.92578 222.97266 A 8.0510214 4.9544748 45 0 1 161.72852 220.7832 A 8.0510214 4.9544748 45 0 1 160.84961 219.80078 A 4.9544748 8.0510214 45 0 1 159.83789 220.94727 A 4.9544748 8.0510214 45 0 1 150.64062 223.13672 A 4.9544748 8.0510214 45 0 1 152.83008 213.93945 A 4.9544748 8.0510214 45 0 1 160.55078 210.92188 A 8.0510214 4.9544748 45 0 1 161.91602 210.60352 A 8.0510214 4.9544748 45 0 1 162.51172 210.60156 z "
       id="path5091-6"
       transform="translate(303.52805,175.88629)" />
  </g>
</svg>
